<svg width="16" height="16" viewBox="0 0 16 16" fill="none" xmlns="http://www.w3.org/2000/svg">
<path fill-rule="evenodd" clip-rule="evenodd" d="M13.5229 8.54936C13.7918 8.51518 14 8.28218 14 8.00011C14 7.69454 13.7556 7.44654 13.4545 7.44654L3.86618 7.44654L7.33018 3.94577L7.37918 3.88923C7.54253 3.67275 7.5263 3.36157 7.33164 3.16266C7.11927 2.9464 6.77382 2.94566 6.56073 3.16118L2.16073 7.60818L2.11221 7.66387C2.03838 7.76126 2 7.88017 2 8.00011C2 8.07171 2.01382 8.1433 2.04145 8.2112C2.12582 8.41861 2.32436 8.55368 2.54545 8.55368H13.4545L13.5229 8.54936ZM7.33171 12.8373C7.54407 12.6203 7.54407 12.2697 7.33025 12.0542L4.90335 9.60155L4.84732 9.552C4.63299 9.38691 4.3271 9.40411 4.13244 9.60302C4.02625 9.71152 3.97316 9.8525 3.97316 9.99347C3.97316 10.1359 4.02625 10.2776 4.13389 10.3861L6.56007 12.8388L6.61612 12.8882C6.83054 13.0527 7.13704 13.0356 7.33171 12.8373Z" fill="#021222"/>
</svg>
