<svg width="39" height="39" viewBox="0 0 39 39" fill="none" xmlns="http://www.w3.org/2000/svg">
<path d="M19.2394 1.48119C20.1466 0.87662 21.21 0.548731 22.3002 0.537413C23.3904 0.526095 24.4604 0.831836 25.38 1.41744L33.1688 6.37494H36.375C36.8723 6.37494 37.3492 6.57249 37.7008 6.92412C38.0525 7.27575 38.25 7.75266 38.25 8.24994V25.1249C38.25 25.6222 38.0525 26.0991 37.7008 26.4508C37.3492 26.8024 36.8723 26.9999 36.375 26.9999H33.525C33.5851 27.913 33.392 28.8249 32.9669 29.6351C32.5417 30.4454 31.9011 31.1225 31.1156 31.5918L21.5662 37.3218C20.9795 37.6736 20.3077 37.8582 19.6235 37.8555C18.9394 37.8529 18.269 37.6631 17.685 37.3068C17.0272 37.888 16.1863 38.2201 15.3089 38.2451C14.4314 38.2701 13.573 37.9865 12.8831 37.4437L3.24563 29.8706C2.57223 29.3417 2.09997 28.5985 1.90727 27.7642C1.71456 26.93 1.81301 26.0549 2.18625 25.2843C1.73851 24.9333 1.37652 24.485 1.12769 23.9733C0.878851 23.4617 0.749695 22.9001 0.750001 22.3312V8.24994C0.750001 7.75266 0.947545 7.27575 1.29918 6.92412C1.65081 6.57249 2.12772 6.37494 2.625 6.37494H11.9006L19.2394 1.48119ZM4.82438 22.5862L6.12187 21.4518C7.23072 20.4819 8.67583 19.9856 10.1466 20.0698C11.6174 20.1539 12.9965 20.8117 13.9875 21.9018L19.0538 27.4743C19.8482 28.3482 20.3475 29.45 20.4808 30.6235C20.614 31.797 20.3745 32.9827 19.7962 34.0124L29.1881 28.3781C29.4338 28.2304 29.6202 28.0016 29.7154 27.7313C29.8105 27.4609 29.8084 27.1658 29.7094 26.8968L21.4087 15.2756C21.1814 14.9571 20.8602 14.7177 20.49 14.5909C20.1198 14.4641 19.7192 14.4564 19.3444 14.5687L14.6831 15.9656C13.7104 16.2573 12.6768 16.2803 11.6921 16.0321C10.7073 15.7838 9.80817 15.2736 9.09 14.5556L8.54063 14.0081C8.04178 13.5102 7.69356 12.8817 7.53601 12.1948C7.37846 11.5079 7.41797 10.7904 7.65 10.1249H4.5V22.3312L4.82438 22.5862ZM23.3681 4.58244C23.0612 4.3869 22.704 4.28491 22.3401 4.28891C21.9762 4.2929 21.6213 4.40271 21.3188 4.60494L11.1938 11.3549L11.7413 11.9043C11.9809 12.1437 12.2809 12.3136 12.6094 12.3962C12.9379 12.4787 13.2826 12.4707 13.6069 12.3731L18.2663 10.9762C19.3906 10.639 20.5922 10.6621 21.7027 11.042C22.8133 11.4219 23.7772 12.1398 24.4594 13.0949L31.7156 23.2499H34.5V10.1249H33.1706C32.4572 10.1249 31.7586 9.92126 31.1569 9.53807L23.3681 4.58244ZM8.58938 24.2718L5.55938 26.9231L15.1969 34.4962L16.5187 32.1862C16.7152 31.8421 16.7976 31.4447 16.7541 31.0509C16.7106 30.6572 16.5436 30.2873 16.2769 29.9943L11.2125 24.4218C10.8822 24.0586 10.4226 23.8395 9.93251 23.8115C9.4424 23.7834 8.95896 23.9487 8.58938 24.2718Z" fill="white"/>
</svg>
