<svg width="41" height="41" viewBox="0 0 41 41" fill="none" xmlns="http://www.w3.org/2000/svg">
<path d="M20.5 10.25L22.9498 14.9945L28.1875 15.7555L24.3438 19.2188L25.625 24.3438L20.5 21.4609L15.375 24.3438L16.6562 19.2188L12.8125 15.7555L18.1937 14.9945L20.5 10.25Z" fill="white"/>
<path d="M22.7243 38.4375L20.5 37.1562L25.625 28.1875H33.3125C33.6492 28.188 33.9826 28.1221 34.2937 27.9935C34.6049 27.8649 34.8875 27.6761 35.1256 27.4381C35.3636 27.2 35.5524 26.9174 35.681 26.6062C35.8096 26.2951 35.8755 25.9617 35.875 25.625V10.25C35.8755 9.91335 35.8096 9.5799 35.681 9.26878C35.5524 8.95765 35.3636 8.67496 35.1256 8.43691C34.8875 8.19886 34.6049 8.01013 34.2937 7.88153C33.9826 7.75293 33.6492 7.68699 33.3125 7.6875H7.6875C7.35085 7.68699 7.0174 7.75293 6.70628 7.88153C6.39515 8.01013 6.11246 8.19886 5.87441 8.43691C5.63636 8.67496 5.44763 8.95765 5.31903 9.26878C5.19043 9.5799 5.12449 9.91335 5.125 10.25V25.625C5.12449 25.9617 5.19043 26.2951 5.31903 26.6062C5.44763 26.9174 5.63636 27.2 5.87441 27.4381C6.11246 27.6761 6.39515 27.8649 6.70628 27.9935C7.0174 28.1221 7.35085 28.188 7.6875 28.1875H19.2188V30.75H7.6875C6.32827 30.75 5.0247 30.21 4.06358 29.2489C3.10245 28.2878 2.5625 26.9842 2.5625 25.625V10.25C2.5625 8.89077 3.10245 7.5872 4.06358 6.62608C5.0247 5.66495 6.32827 5.125 7.6875 5.125H33.3125C34.6717 5.125 35.9753 5.66495 36.9364 6.62608C37.8975 7.5872 38.4375 8.89077 38.4375 10.25V25.625C38.4375 26.9842 37.8975 28.2878 36.9364 29.2489C35.9753 30.21 34.6717 30.75 33.3125 30.75H27.1177L22.7243 38.4375Z" fill="white"/>
</svg>
