<svg width="35" height="34" viewBox="0 0 35 34" fill="none" xmlns="http://www.w3.org/2000/svg">
<path d="M10.7454 27.1032C8.89034 27.1032 7.3894 28.621 7.3894 30.4761C7.3894 32.3312 8.89034 33.849 10.7454 33.849C12.6005 33.849 14.1184 32.3312 14.1184 30.4761C14.1184 28.621 12.6005 27.1032 10.7454 27.1032ZM27.61 27.1032C25.7549 27.1032 24.254 28.621 24.254 30.4761C24.254 32.3312 25.7549 33.849 27.61 33.849C29.4651 33.849 30.9829 32.3312 30.9829 30.4761C30.9829 28.621 29.4651 27.1032 27.61 27.1032ZM12.6005 18.6709H25.1646C26.4295 18.6709 27.5425 17.9794 28.1159 16.9338L34.3558 5.11178L31.4045 3.49278L25.1646 15.298H13.3257L6.14142 0.119873H0.626709V3.49278H3.99962L10.0709 16.293L7.79415 20.4079C6.56303 22.6678 8.18203 25.4167 10.7454 25.4167H30.9829V22.0438H10.7454L12.6005 18.6709ZM19.1777 0.119873L25.9235 6.8657L19.1777 13.6115L16.7998 11.2336L19.4644 8.55215H12.4319V5.17924H19.4644L16.783 2.49778L19.1777 0.119873Z" fill="white"/>
</svg>
