<svg width="29" height="29" viewBox="0 0 29 29" fill="none" xmlns="http://www.w3.org/2000/svg">
<path d="M25.7778 2.9H24.1667V0H20.9444V2.9H8.05556V0H4.83333V2.9H3.22222C1.43389 2.9 0.0161111 4.205 0.0161111 5.8L0 26.1C0 27.695 1.43389 29 3.22222 29H25.7778C27.55 29 29 27.695 29 26.1V5.8C29 4.205 27.55 2.9 25.7778 2.9ZM25.7778 26.1H3.22222V11.6H25.7778V26.1ZM25.7778 8.7H3.22222V5.8H25.7778V8.7ZM9.66667 17.4H6.44444V14.5H9.66667V17.4ZM16.1111 17.4H12.8889V14.5H16.1111V17.4ZM22.5556 17.4H19.3333V14.5H22.5556V17.4ZM9.66667 23.2H6.44444V20.3H9.66667V23.2ZM16.1111 23.2H12.8889V20.3H16.1111V23.2ZM22.5556 23.2H19.3333V20.3H22.5556V23.2Z" fill="white"/>
</svg>
