<svg width="29" height="29" viewBox="0 0 29 29" fill="none" xmlns="http://www.w3.org/2000/svg">
<path d="M5.70333 3.22222C5.8 4.65611 6.04167 6.05778 6.42833 7.395L4.495 9.32833C3.83444 7.395 3.41556 5.34889 3.27056 3.22222H5.70333ZM21.5889 22.5878C22.9583 22.9744 24.36 23.2161 25.7778 23.3128V25.7133C23.6511 25.5683 21.605 25.1494 19.6556 24.505L21.5889 22.5878ZM7.25 0H1.61111C0.725 0 0 0.725 0 1.61111C0 16.7394 12.2606 29 27.3889 29C28.275 29 29 28.275 29 27.3889V21.7661C29 20.88 28.275 20.155 27.3889 20.155C25.3911 20.155 23.4417 19.8328 21.6372 19.2367C21.4761 19.1722 21.2989 19.1561 21.1378 19.1561C20.7189 19.1561 20.3161 19.3172 19.9939 19.6233L16.4494 23.1678C11.89 20.8317 8.15222 17.11 5.83222 12.5506L9.37667 9.00611C9.82778 8.555 9.95667 7.92667 9.77944 7.36278C9.18333 5.55833 8.86111 3.625 8.86111 1.61111C8.86111 0.725 8.13611 0 7.25 0Z" fill="white"/>
</svg>
