<svg width="37" height="37" viewBox="0 0 37 37" fill="none" xmlns="http://www.w3.org/2000/svg">
<path d="M33.3 0H3.7C1.665 0 0.0185 1.665 0.0185 3.7L0 37L7.4 29.6H33.3C35.335 29.6 37 27.935 37 25.9V3.7C37 1.665 35.335 0 33.3 0ZM9.25 12.95H27.75C28.7675 12.95 29.6 13.7825 29.6 14.8C29.6 15.8175 28.7675 16.65 27.75 16.65H9.25C8.2325 16.65 7.4 15.8175 7.4 14.8C7.4 13.7825 8.2325 12.95 9.25 12.95ZM20.35 22.2H9.25C8.2325 22.2 7.4 21.3675 7.4 20.35C7.4 19.3325 8.2325 18.5 9.25 18.5H20.35C21.3675 18.5 22.2 19.3325 22.2 20.35C22.2 21.3675 21.3675 22.2 20.35 22.2ZM27.75 11.1H9.25C8.2325 11.1 7.4 10.2675 7.4 9.25C7.4 8.2325 8.2325 7.4 9.25 7.4H27.75C28.7675 7.4 29.6 8.2325 29.6 9.25C29.6 10.2675 28.7675 11.1 27.75 11.1Z" fill="#100B01"/>
</svg>
