<svg width="183" height="32" viewBox="0 0 183 32" fill="none" xmlns="http://www.w3.org/2000/svg">
<path d="M0.201705 31V1.90909H7.23295V13.5852H18.696V1.90909H25.7131V31H18.696V19.3097H7.23295V31H0.201705ZM40.3082 31.4119C38.0166 31.4119 36.0469 30.9432 34.3991 30.0057C32.7609 29.0587 31.4967 27.7424 30.6065 26.0568C29.7259 24.3617 29.2855 22.3968 29.2855 20.1619C29.2855 17.9176 29.7259 15.9527 30.6065 14.267C31.4967 12.572 32.7609 11.2557 34.3991 10.3182C36.0469 9.37121 38.0166 8.89773 40.3082 8.89773C42.5999 8.89773 44.5649 9.37121 46.2031 10.3182C47.8509 11.2557 49.1151 12.572 49.9957 14.267C50.8859 15.9527 51.331 17.9176 51.331 20.1619C51.331 22.3968 50.8859 24.3617 49.9957 26.0568C49.1151 27.7424 47.8509 29.0587 46.2031 30.0057C44.5649 30.9432 42.5999 31.4119 40.3082 31.4119ZM40.3509 26.1705C41.1842 26.1705 41.8897 25.9148 42.4673 25.4034C43.045 24.892 43.4853 24.1818 43.7884 23.2727C44.1009 22.3636 44.2571 21.3125 44.2571 20.1193C44.2571 18.9072 44.1009 17.8466 43.7884 16.9375C43.4853 16.0284 43.045 15.3182 42.4673 14.8068C41.8897 14.2955 41.1842 14.0398 40.3509 14.0398C39.4891 14.0398 38.7599 14.2955 38.1634 14.8068C37.5762 15.3182 37.1264 16.0284 36.8139 16.9375C36.5109 17.8466 36.3594 18.9072 36.3594 20.1193C36.3594 21.3125 36.5109 22.3636 36.8139 23.2727C37.1264 24.1818 37.5762 24.892 38.1634 25.4034C38.7599 25.9148 39.4891 26.1705 40.3509 26.1705ZM61.8352 1.90909V31H54.8892V1.90909H61.8352ZM76.4411 31.4119C74.1494 31.4119 72.1797 30.9432 70.532 30.0057C68.8937 29.0587 67.6295 27.7424 66.7393 26.0568C65.8587 24.3617 65.4183 22.3968 65.4183 20.1619C65.4183 17.9176 65.8587 15.9527 66.7393 14.267C67.6295 12.572 68.8937 11.2557 70.532 10.3182C72.1797 9.37121 74.1494 8.89773 76.4411 8.89773C78.7327 8.89773 80.6977 9.37121 82.3359 10.3182C83.9837 11.2557 85.2479 12.572 86.1286 14.267C87.0187 15.9527 87.4638 17.9176 87.4638 20.1619C87.4638 22.3968 87.0187 24.3617 86.1286 26.0568C85.2479 27.7424 83.9837 29.0587 82.3359 30.0057C80.6977 30.9432 78.7327 31.4119 76.4411 31.4119ZM76.4837 26.1705C77.317 26.1705 78.0225 25.9148 78.6001 25.4034C79.1778 24.892 79.6181 24.1818 79.9212 23.2727C80.2337 22.3636 80.3899 21.3125 80.3899 20.1193C80.3899 18.9072 80.2337 17.8466 79.9212 16.9375C79.6181 16.0284 79.1778 15.3182 78.6001 14.8068C78.0225 14.2955 77.317 14.0398 76.4837 14.0398C75.6219 14.0398 74.8928 14.2955 74.2962 14.8068C73.709 15.3182 73.2592 16.0284 72.9467 16.9375C72.6437 17.8466 72.4922 18.9072 72.4922 20.1193C72.4922 21.3125 72.6437 22.3636 72.9467 23.2727C73.2592 24.1818 73.709 24.892 74.2962 25.4034C74.8928 25.9148 75.6219 26.1705 76.4837 26.1705ZM91.022 31V1.90909H103.039C105.217 1.90909 107.097 2.33523 108.678 3.1875C110.269 4.0303 111.496 5.20928 112.357 6.72443C113.219 8.23011 113.65 9.98201 113.65 11.9801C113.65 13.9877 113.21 15.7443 112.329 17.25C111.458 18.7462 110.212 19.9062 108.593 20.7301C106.974 21.554 105.051 21.9659 102.826 21.9659H95.4112V16.4261H101.519C102.58 16.4261 103.465 16.2415 104.175 15.8722C104.895 15.5028 105.44 14.9867 105.809 14.3239C106.178 13.6515 106.363 12.8703 106.363 11.9801C106.363 11.0805 106.178 10.304 105.809 9.65057C105.44 8.98769 104.895 8.47633 104.175 8.11648C103.456 7.75663 102.57 7.5767 101.519 7.5767H98.0533V31H91.022ZM117.116 31V9.18182H124.062V31H117.116ZM120.596 6.6392C119.621 6.6392 118.782 6.31723 118.082 5.6733C117.381 5.01989 117.031 4.2339 117.031 3.31534C117.031 2.40625 117.381 1.62973 118.082 0.985795C118.782 0.332385 119.621 0.00568008 120.596 0.00568008C121.581 0.00568008 122.419 0.332385 123.11 0.985795C123.811 1.62973 124.161 2.40625 124.161 3.31534C124.161 4.2339 123.811 5.01989 123.11 5.6733C122.419 6.31723 121.581 6.6392 120.596 6.6392ZM134.392 9.18182L137.986 16.3693L141.707 9.18182H148.71L142.616 20.0909L148.938 31H141.991L137.986 23.7557L134.08 31H127.034L133.369 20.0909L127.347 9.18182H134.392ZM161.299 31.4119C159.017 31.4119 157.047 30.9621 155.39 30.0625C153.742 29.1534 152.473 27.8608 151.583 26.1847C150.702 24.4991 150.262 22.4962 150.262 20.1761C150.262 17.9223 150.707 15.9527 151.597 14.267C152.487 12.572 153.742 11.2557 155.362 10.3182C156.981 9.37121 158.889 8.89773 161.086 8.89773C162.639 8.89773 164.059 9.1392 165.347 9.62216C166.635 10.1051 167.748 10.8201 168.685 11.767C169.623 12.714 170.352 13.8835 170.873 15.2756C171.394 16.6581 171.654 18.2443 171.654 20.0341V21.767H152.691V17.733H165.191C165.182 16.9943 165.006 16.3362 164.665 15.7585C164.325 15.1809 163.856 14.7311 163.259 14.4091C162.672 14.0777 161.995 13.9119 161.228 13.9119C160.451 13.9119 159.755 14.0871 159.14 14.4375C158.524 14.7784 158.037 15.2472 157.677 15.8438C157.317 16.4309 157.128 17.0985 157.109 17.8466V21.9517C157.109 22.8419 157.284 23.6231 157.634 24.2955C157.985 24.9583 158.482 25.4744 159.126 25.8438C159.77 26.2131 160.537 26.3977 161.427 26.3977C162.042 26.3977 162.601 26.3125 163.103 26.142C163.605 25.9716 164.036 25.7206 164.396 25.3892C164.755 25.0578 165.025 24.6506 165.205 24.1676L171.583 24.3523C171.318 25.7822 170.736 27.0275 169.836 28.0881C168.946 29.1392 167.776 29.9583 166.327 30.5455C164.879 31.1231 163.202 31.4119 161.299 31.4119ZM182.148 1.90909V31H175.202V1.90909H182.148Z" fill="white"/>
</svg>
