<svg width="18" height="19" viewBox="0 0 18 19" fill="none" xmlns="http://www.w3.org/2000/svg">
<path d="M9.24982 5.00781C6.74982 5.00781 4.75763 7.03906 4.75763 9.5C4.75763 12 6.74982 13.9922 9.24982 13.9922C11.7108 13.9922 13.742 12 13.742 9.5C13.742 7.03906 11.7108 5.00781 9.24982 5.00781ZM9.24982 12.4297C7.64825 12.4297 6.32013 11.1406 6.32013 9.5C6.32013 7.89844 7.60919 6.60938 9.24982 6.60938C10.8514 6.60938 12.1404 7.89844 12.1404 9.5C12.1404 11.1406 10.8514 12.4297 9.24982 12.4297ZM14.9529 4.85156C14.9529 5.4375 14.4842 5.90625 13.8983 5.90625C13.3123 5.90625 12.8436 5.4375 12.8436 4.85156C12.8436 4.26562 13.3123 3.79688 13.8983 3.79688C14.4842 3.79688 14.9529 4.26562 14.9529 4.85156ZM17.9217 5.90625C17.8436 4.5 17.5311 3.25 16.5154 2.23438C15.4998 1.21875 14.2498 0.90625 12.8436 0.828125C11.3983 0.75 7.06232 0.75 5.617 0.828125C4.21075 0.90625 2.99982 1.21875 1.94513 2.23438C0.929504 3.25 0.617004 4.5 0.538879 5.90625C0.460754 7.35156 0.460754 11.6875 0.538879 13.1328C0.617004 14.5391 0.929504 15.75 1.94513 16.8047C2.99982 17.8203 4.21075 18.1328 5.617 18.2109C7.06232 18.2891 11.3983 18.2891 12.8436 18.2109C14.2498 18.1328 15.4998 17.8203 16.5154 16.8047C17.5311 15.75 17.8436 14.5391 17.9217 13.1328C17.9998 11.6875 17.9998 7.35156 17.9217 5.90625ZM16.0467 14.6562C15.7733 15.4375 15.1483 16.0234 14.4061 16.3359C13.2342 16.8047 10.4998 16.6875 9.24982 16.6875C7.96075 16.6875 5.22638 16.8047 4.09357 16.3359C3.31232 16.0234 2.72638 15.4375 2.41388 14.6562C1.94513 13.5234 2.06232 10.7891 2.06232 9.5C2.06232 8.25 1.94513 5.51562 2.41388 4.34375C2.72638 3.60156 3.31232 3.01562 4.09357 2.70312C5.22638 2.23438 7.96075 2.35156 9.24982 2.35156C10.4998 2.35156 13.2342 2.23438 14.4061 2.70312C15.1483 2.97656 15.7342 3.60156 16.0467 4.34375C16.5154 5.51562 16.3983 8.25 16.3983 9.5C16.3983 10.7891 16.5154 13.5234 16.0467 14.6562Z" fill="white"/>
</svg>
