<svg width="20" height="21" viewBox="0 0 20 21" fill="none" xmlns="http://www.w3.org/2000/svg">
<path d="M19.8748 10.5C19.8748 15.8516 15.5389 20.1875 10.1873 20.1875C9.17169 20.1875 8.19513 20.0703 7.29669 19.7578C7.68732 19.1328 8.27325 18.0781 8.50763 17.2188C8.62482 16.7891 9.09357 14.9141 9.09357 14.9141C9.40607 15.5391 10.3436 16.0469 11.3201 16.0469C14.2498 16.0469 16.3592 13.3516 16.3592 10.0312C16.3592 6.82812 13.742 4.40625 10.3826 4.40625C6.20294 4.40625 3.97638 7.21875 3.97638 10.2656C3.97638 11.7109 4.71857 13.4688 5.9295 14.0547C6.12482 14.1328 6.242 14.0938 6.28107 13.8984C6.28107 13.7812 6.47638 13.1172 6.5545 12.8047C6.5545 12.7266 6.5545 12.6094 6.47638 12.5312C6.08575 12.0625 5.77325 11.1641 5.77325 10.3047C5.77325 8.19531 7.37482 6.125 10.1483 6.125C12.492 6.125 14.1717 7.72656 14.1717 10.0703C14.1717 12.6875 12.8436 14.4844 11.1248 14.4844C10.1873 14.4844 9.48419 13.7031 9.6795 12.7656C9.95294 11.5938 10.4998 10.3438 10.4998 9.52344C10.4998 8.78125 10.1092 8.15625 9.28888 8.15625C8.31232 8.15625 7.53107 9.17188 7.53107 10.5C7.53107 11.3594 7.8045 11.9453 7.8045 11.9453C7.8045 11.9453 6.867 16.0078 6.67169 16.75C6.47638 17.6094 6.5545 18.7812 6.63263 19.5234C3.03888 18.1172 0.499817 14.6406 0.499817 10.5C0.499817 5.14844 4.83575 0.8125 10.1873 0.8125C15.5389 0.8125 19.8748 5.14844 19.8748 10.5Z" fill="white"/>
</svg>
