<svg width="15" height="13" viewBox="0 0 15 13" fill="none" xmlns="http://www.w3.org/2000/svg">
<path d="M0.756425 13C0.252223 10.7593 0.00012207 8.81463 0.00012207 7.16585C0.00012207 4.79838 0.546341 3.02277 1.63878 1.83902C2.73121 0.613008 4.32785 0 6.42869 0V2.53659C5.33626 2.53659 4.53794 2.83252 4.03374 3.42439C3.57155 4.01626 3.34046 4.90407 3.34046 6.0878V7.54634H6.49172V13H0.756425ZM9.26483 13C8.76063 10.7593 8.50853 8.81463 8.50853 7.16585C8.50853 4.79838 9.05474 3.02277 10.1472 1.83902C11.2396 0.613008 12.8363 0 14.9371 0V2.53659C13.8447 2.53659 13.0463 2.83252 12.5421 3.42439C12.08 4.01626 11.8489 4.90407 11.8489 6.0878V7.54634H15.0001V13H9.26483Z" fill="white"/>
</svg>
