<svg width="21" height="17" viewBox="0 0 21 17" fill="none" xmlns="http://www.w3.org/2000/svg">
<path d="M18.4295 4.4375C18.4295 4.63281 18.4295 4.78906 18.4295 4.98438C18.4295 10.4141 14.3279 16.625 6.78888 16.625C4.44513 16.625 2.29669 15.9609 0.499817 14.7891C0.812317 14.8281 1.12482 14.8672 1.47638 14.8672C3.39044 14.8672 5.14825 14.2031 6.5545 13.1094C4.75763 13.0703 3.23419 11.8984 2.72638 10.2578C2.99982 10.2969 3.23419 10.3359 3.50763 10.3359C3.85919 10.3359 4.24982 10.2578 4.56232 10.1797C2.68732 9.78906 1.28107 8.14844 1.28107 6.15625V6.11719C1.82794 6.42969 2.492 6.58594 3.15607 6.625C2.02325 5.88281 1.32013 4.63281 1.32013 3.22656C1.32013 2.44531 1.51544 1.74219 1.867 1.15625C3.89825 3.61719 6.94513 5.25781 10.3436 5.45312C10.2654 5.14062 10.2264 4.82812 10.2264 4.51562C10.2264 2.25 12.0623 0.414062 14.3279 0.414062C15.4998 0.414062 16.5545 0.882812 17.3358 1.70312C18.2342 1.50781 19.1326 1.15625 19.9139 0.6875C19.6014 1.66406 18.9764 2.44531 18.117 2.95312C18.9373 2.875 19.7576 2.64062 20.4608 2.32812C19.9139 3.14844 19.2108 3.85156 18.4295 4.4375Z" fill="white"/>
</svg>
