<svg width="34" height="34" viewBox="0 0 34 34" fill="none" xmlns="http://www.w3.org/2000/svg">
<path d="M29.0106 5.02758C25.8411 1.85704 21.6207 0.119995 17.1291 0.119995C7.87481 0.119995 0.332372 7.62472 0.332372 16.8328C0.332372 19.7841 1.11204 22.651 2.56968 25.1807L0.196777 33.8491L9.09516 31.5218C11.5528 32.8541 14.3155 33.5624 17.1291 33.5624C26.3834 33.5624 33.9259 26.0577 33.9259 16.8496C33.9259 12.3805 32.1801 8.18125 29.0106 5.02758ZM17.1291 30.7292C14.6206 30.7292 12.163 30.0546 10.0104 28.7897L9.50194 28.4862L4.21376 29.8691L5.62055 24.7422L5.28157 24.2194C3.89173 22.0102 3.14596 19.4468 3.14596 16.8328C3.14596 9.17626 9.4172 2.93638 17.1122 2.93638C20.841 2.93638 24.3495 4.38673 26.9767 7.0176C29.6208 9.64847 31.0615 13.1394 31.0615 16.8496C31.0954 24.5061 24.8241 30.7292 17.1291 30.7292ZM24.7902 20.3406C24.3665 20.1382 22.2987 19.1264 21.9258 18.9746C21.5359 18.8397 21.2648 18.7722 20.9766 19.1769C20.6885 19.5986 19.8919 20.543 19.6546 20.8128C19.4173 21.0995 19.163 21.1332 18.7393 20.914C18.3156 20.7116 16.9596 20.2563 15.3664 18.8397C14.1122 17.7266 13.2816 16.3606 13.0274 15.9389C12.7901 15.5173 12.9935 15.2981 13.2138 15.0789C13.4003 14.8933 13.6376 14.5898 13.841 14.3537C14.0444 14.1176 14.1291 13.9321 14.2647 13.6622C14.4003 13.3755 14.3325 13.1394 14.2308 12.9371C14.1291 12.7347 13.2816 10.6772 12.9427 9.83398C12.6037 9.02448 12.2477 9.12567 11.9935 9.1088C11.7393 9.1088 11.4681 9.1088 11.1799 9.1088C10.8918 9.1088 10.4511 9.20999 10.0613 9.63161C9.68839 10.0532 8.60363 11.0651 8.60363 13.1226C8.60363 15.18 10.1121 17.1701 10.3155 17.4399C10.5189 17.7266 13.2816 21.9427 17.4851 23.7472C18.4851 24.1857 19.2647 24.4387 19.8749 24.6242C20.8749 24.9446 21.7902 24.894 22.519 24.7928C23.3326 24.6748 25.0106 23.781 25.3495 22.8028C25.7055 21.8247 25.7055 20.9983 25.5868 20.8128C25.4682 20.6273 25.2139 20.543 24.7902 20.3406Z" fill="#100B01"/>
</svg>
